<svg xmlns="http://www.w3.org/2000/svg" xmlns:xlink="http://www.w3.org/1999/xlink" contentStyleType="text/css" data-diagram-type="DESCRIPTION" height="1007px" preserveAspectRatio="none" style="width:634px;height:1007px;background:#FFFFFF;" version="1.1" viewBox="0 0 634 1007" width="634px" zoomAndPan="magnify"><defs/><g><!--cluster SQLAlchemy Ecosystem--><g class="cluster" data-entity="SQLAlchemy Ecosystem" data-source-line="6" data-uid="ent0002" id="cluster_SQLAlchemy Ecosystem"><path d="M8.5,6 L167.3408,6 A3.75,3.75 0 0 1 169.8408,8.5 L176.8408,27.3105 L624.5,27.3105 A2.5,2.5 0 0 1 627,29.8105 L627,998.16 A2.5,2.5 0 0 1 624.5,1000.66 L8.5,1000.66 A2.5,2.5 0 0 1 6,998.16 L6,8.5 A2.5,2.5 0 0 1 8.5,6" fill="none" style="stroke:#000000;stroke-width:1.5;"/><line style="stroke:#000000;stroke-width:1.5;" x1="6" x2="176.8408" y1="27.3105" y2="27.3105"/><text fill="#000000" font-family="sans-serif" font-size="13" font-weight="bold" lengthAdjust="spacing" textLength="157.8408" x="10" y="20.5684">SQLAlchemy Ecosystem</text></g><!--cluster ORM Layer (??'?????? ??????)--><g class="cluster" data-entity="ORM Layer .......... ......." data-source-line="7" data-uid="ent0003" id="cluster_ORM Layer .......... ......."><path d="M32.5,48 L237.6978,48 A3.75,3.75 0 0 1 240.1978,50.5 L247.1978,69.3105 L400.5,69.3105 A2.5,2.5 0 0 1 403,71.8105 L403,405.02 A2.5,2.5 0 0 1 400.5,407.52 L32.5,407.52 A2.5,2.5 0 0 1 30,405.02 L30,50.5 A2.5,2.5 0 0 1 32.5,48" fill="#E8F4F8" style="stroke:#000000;stroke-width:1.5;"/><line style="stroke:#000000;stroke-width:1.5;" x1="30" x2="247.1978" y1="69.3105" y2="69.3105"/><text fill="#000000" font-family="sans-serif" font-size="13" font-weight="bold" lengthAdjust="spacing" textLength="204.1978" x="34" y="62.5684">ORM Layer (&#1054;&#1073;'&#1108;&#1082;&#1090;&#1085;&#1080;&#1081; &#1088;&#1110;&#1074;&#1077;&#1085;&#1100;)</text></g><!--cluster Core Layer (SQL ??????)--><g class="cluster" data-entity="Core Layer .SQL ......." data-source-line="14" data-uid="ent0008" id="cluster_Core Layer .SQL ......."><path d="M429.5,289.24 L590.3784,289.24 A3.75,3.75 0 0 1 592.8784,291.74 L599.8784,310.5505 L600.5,310.5505 A2.5,2.5 0 0 1 603,313.0505 L603,759.23 A2.5,2.5 0 0 1 600.5,761.73 L429.5,761.73 A2.5,2.5 0 0 1 427,759.23 L427,291.74 A2.5,2.5 0 0 1 429.5,289.24" fill="#FFF3CD" style="stroke:#000000;stroke-width:1.5;"/><line style="stroke:#000000;stroke-width:1.5;" x1="427" x2="599.8784" y1="310.5505" y2="310.5505"/><text fill="#000000" font-family="sans-serif" font-size="13" font-weight="bold" lengthAdjust="spacing" textLength="159.8784" x="431" y="303.8084">Core Layer (SQL &#1088;&#1110;&#1074;&#1077;&#1085;&#1100;)</text></g><!--cluster DBAPI (???????)--><g class="cluster" data-entity="DBAPI ........." data-source-line="21" data-uid="ent0013" id="cluster_DBAPI ........."><path d="M208.5,785.73 L323.3008,785.73 A3.75,3.75 0 0 1 325.8008,788.23 L332.8008,807.0405 L600.5,807.0405 A2.5,2.5 0 0 1 603,809.5405 L603,893.85 A2.5,2.5 0 0 1 600.5,896.35 L208.5,896.35 A2.5,2.5 0 0 1 206,893.85 L206,788.23 A2.5,2.5 0 0 1 208.5,785.73" fill="#F8D7DA" style="stroke:#000000;stroke-width:1.5;"/><line style="stroke:#000000;stroke-width:1.5;" x1="206" x2="332.8008" y1="807.0405" y2="807.0405"/><text fill="#000000" font-family="sans-serif" font-size="13" font-weight="bold" lengthAdjust="spacing" textLength="113.8008" x="210" y="800.2984">DBAPI (&#1044;&#1088;&#1072;&#1081;&#1074;&#1077;&#1088;)</text></g><!--entity pg--><g class="entity" data-entity="pg" data-source-line="26" data-uid="ent0016" id="entity_pg"><path d="M360.32,950.35 C360.32,940.35 406.0002,940.35 406.0002,940.35 C406.0002,940.35 451.6804,940.35 451.6804,950.35 L451.6804,974.6605 C451.6804,984.6605 406.0002,984.6605 406.0002,984.6605 C406.0002,984.6605 360.32,984.6605 360.32,974.6605 L360.32,950.35" fill="#F1F1F1" style="stroke:#181818;stroke-width:0.5;"/><path d="M360.32,950.35 C360.32,960.35 406.0002,960.35 406.0002,960.35 C406.0002,960.35 451.6804,960.35 451.6804,950.35" fill="none" style="stroke:#181818;stroke-width:0.5;"/><text fill="#000000" font-family="sans-serif" font-size="13" lengthAdjust="spacing" textLength="71.3604" x="370.32" y="976.9184">PostgreSQL</text></g><!--entity models--><g class="entity" data-entity="models" data-source-line="8" data-uid="ent0004" id="entity_models"><rect fill="#F1F1F1" height="60.6211" rx="2.5" ry="2.5" style="stroke:#181818;stroke-width:0.5;" width="141.334" x="46.33" y="82"/><rect fill="#F1F1F1" height="10" style="stroke:#181818;stroke-width:0.5;" width="15" x="167.664" y="87"/><rect fill="#F1F1F1" height="2" style="stroke:#181818;stroke-width:0.5;" width="4" x="165.664" y="89"/><rect fill="#F1F1F1" height="2" style="stroke:#181818;stroke-width:0.5;" width="4" x="165.664" y="93"/><text fill="#000000" font-family="sans-serif" font-size="13" lengthAdjust="spacing" textLength="98.1919" x="61.33" y="114.5684">DeclarativeBase</text><text fill="#000000" font-family="sans-serif" font-size="13" lengthAdjust="spacing" textLength="101.334" x="61.33" y="129.8789">Mapped Classes</text></g><!--entity session--><g class="entity" data-entity="session" data-source-line="9" data-uid="ent0005" id="entity_session"><rect fill="#F1F1F1" height="60.6211" rx="2.5" ry="2.5" style="stroke:#181818;stroke-width:0.5;" width="124.4238" x="262.79" y="202.62"/><rect fill="#F1F1F1" height="10" style="stroke:#181818;stroke-width:0.5;" width="15" x="367.2138" y="207.62"/><rect fill="#F1F1F1" height="2" style="stroke:#181818;stroke-width:0.5;" width="4" x="365.2138" y="209.62"/><rect fill="#F1F1F1" height="2" style="stroke:#181818;stroke-width:0.5;" width="4" x="365.2138" y="213.62"/><text fill="#000000" font-family="sans-serif" font-size="13" lengthAdjust="spacing" textLength="47.3091" x="277.79" y="235.1884">Session</text><text fill="#000000" font-family="sans-serif" font-size="13" lengthAdjust="spacing" textLength="84.4238" x="277.79" y="250.4989">AsyncSession</text></g><!--entity uow--><g class="entity" data-entity="uow" data-source-line="10" data-uid="ent0006" id="entity_uow"><rect fill="#F1F1F1" height="60.6211" rx="2.5" ry="2.5" style="stroke:#181818;stroke-width:0.5;" width="118.7109" x="266.64" y="330.9"/><rect fill="#F1F1F1" height="10" style="stroke:#181818;stroke-width:0.5;" width="15" x="365.3509" y="335.9"/><rect fill="#F1F1F1" height="2" style="stroke:#181818;stroke-width:0.5;" width="4" x="363.3509" y="337.9"/><rect fill="#F1F1F1" height="2" style="stroke:#181818;stroke-width:0.5;" width="4" x="363.3509" y="341.9"/><text fill="#000000" font-family="sans-serif" font-size="13" lengthAdjust="spacing" textLength="78.7109" x="281.64" y="363.4684">Unit of Work</text><text fill="#000000" font-family="sans-serif" font-size="13" lengthAdjust="spacing" textLength="78.1841" x="281.64" y="378.7789">Identity Map</text></g><!--entity rel--><g class="entity" data-entity="rel" data-source-line="11" data-uid="ent0007" id="entity_rel"><rect fill="#F1F1F1" height="60.6211" rx="2.5" ry="2.5" style="stroke:#181818;stroke-width:0.5;" width="164.3887" x="222.81" y="82"/><rect fill="#F1F1F1" height="10" style="stroke:#181818;stroke-width:0.5;" width="15" x="367.1987" y="87"/><rect fill="#F1F1F1" height="2" style="stroke:#181818;stroke-width:0.5;" width="4" x="365.1987" y="89"/><rect fill="#F1F1F1" height="2" style="stroke:#181818;stroke-width:0.5;" width="4" x="365.1987" y="93"/><text fill="#000000" font-family="sans-serif" font-size="13" lengthAdjust="spacing" textLength="84.335" x="237.81" y="114.5684">Relationships</text><text fill="#000000" font-family="sans-serif" font-size="13" lengthAdjust="spacing" textLength="124.3887" x="237.81" y="129.8789">Lazy/Eager Loading</text></g><!--entity engine--><g class="entity" data-entity="engine" data-source-line="15" data-uid="ent0009" id="entity_engine"><rect fill="#F1F1F1" height="60.6211" rx="2.5" ry="2.5" style="stroke:#181818;stroke-width:0.5;" width="119.4028" x="454.3" y="579.8"/><rect fill="#F1F1F1" height="10" style="stroke:#181818;stroke-width:0.5;" width="15" x="553.7028" y="584.8"/><rect fill="#F1F1F1" height="2" style="stroke:#181818;stroke-width:0.5;" width="4" x="551.7028" y="586.8"/><rect fill="#F1F1F1" height="2" style="stroke:#181818;stroke-width:0.5;" width="4" x="551.7028" y="590.8"/><text fill="#000000" font-family="sans-serif" font-size="13" lengthAdjust="spacing" textLength="42.2881" x="469.3" y="612.3684">Engine</text><text fill="#000000" font-family="sans-serif" font-size="13" lengthAdjust="spacing" textLength="79.4028" x="469.3" y="627.6789">AsyncEngine</text></g><!--entity pool--><g class="entity" data-entity="pool" data-source-line="16" data-uid="ent0010" id="entity_pool"><rect fill="#F1F1F1" height="45.3105" rx="2.5" ry="2.5" style="stroke:#181818;stroke-width:0.5;" width="142.7178" x="442.64" y="700.42"/><rect fill="#F1F1F1" height="10" style="stroke:#181818;stroke-width:0.5;" width="15" x="565.3578" y="705.42"/><rect fill="#F1F1F1" height="2" style="stroke:#181818;stroke-width:0.5;" width="4" x="563.3578" y="707.42"/><rect fill="#F1F1F1" height="2" style="stroke:#181818;stroke-width:0.5;" width="4" x="563.3578" y="711.42"/><text fill="#000000" font-family="sans-serif" font-size="13" lengthAdjust="spacing" textLength="102.7178" x="457.64" y="732.9884">Connection Pool</text></g><!--entity dml--><g class="entity" data-entity="dml" data-source-line="17" data-uid="ent0011" id="entity_dml"><rect fill="#F1F1F1" height="60.6211" rx="2.5" ry="2.5" style="stroke:#181818;stroke-width:0.5;" width="143.27" x="443.37" y="459.18"/><rect fill="#F1F1F1" height="10" style="stroke:#181818;stroke-width:0.5;" width="15" x="566.64" y="464.18"/><rect fill="#F1F1F1" height="2" style="stroke:#181818;stroke-width:0.5;" width="4" x="564.64" y="466.18"/><rect fill="#F1F1F1" height="2" style="stroke:#181818;stroke-width:0.5;" width="4" x="564.64" y="470.18"/><text fill="#000000" font-family="sans-serif" font-size="13" lengthAdjust="spacing" textLength="93.2915" x="458.37" y="491.7484">select() insert()</text><text fill="#000000" font-family="sans-serif" font-size="13" lengthAdjust="spacing" textLength="103.27" x="458.37" y="507.0589">update() delete()</text></g><!--entity meta--><g class="entity" data-entity="meta" data-source-line="18" data-uid="ent0012" id="entity_meta"><rect fill="#F1F1F1" height="75.9316" rx="2.5" ry="2.5" style="stroke:#181818;stroke-width:0.5;" width="99.4395" x="465.28" y="323.24"/><rect fill="#F1F1F1" height="10" style="stroke:#181818;stroke-width:0.5;" width="15" x="544.7195" y="328.24"/><rect fill="#F1F1F1" height="2" style="stroke:#181818;stroke-width:0.5;" width="4" x="542.7195" y="330.24"/><rect fill="#F1F1F1" height="2" style="stroke:#181818;stroke-width:0.5;" width="4" x="542.7195" y="334.24"/><text fill="#000000" font-family="sans-serif" font-size="13" lengthAdjust="spacing" textLength="34.582" x="480.28" y="355.8084">Table</text><text fill="#000000" font-family="sans-serif" font-size="13" lengthAdjust="spacing" textLength="49.0103" x="480.28" y="371.1189">Column</text><text fill="#000000" font-family="sans-serif" font-size="13" lengthAdjust="spacing" textLength="59.4395" x="480.28" y="386.4295">MetaData</text></g><!--entity sync_drv--><g class="entity" data-entity="sync_drv" data-source-line="22" data-uid="ent0014" id="entity_sync_drv"><rect fill="#F1F1F1" height="60.6211" rx="2.5" ry="2.5" style="stroke:#181818;stroke-width:0.5;" width="168.3306" x="221.83" y="819.73"/><rect fill="#F1F1F1" height="10" style="stroke:#181818;stroke-width:0.5;" width="15" x="370.1606" y="824.73"/><rect fill="#F1F1F1" height="2" style="stroke:#181818;stroke-width:0.5;" width="4" x="368.1606" y="826.73"/><rect fill="#F1F1F1" height="2" style="stroke:#181818;stroke-width:0.5;" width="4" x="368.1606" y="830.73"/><text fill="#000000" font-family="sans-serif" font-size="13" lengthAdjust="spacing" textLength="128.3306" x="236.83" y="852.2984">psycopg2 / psycopg</text><text fill="#000000" font-family="sans-serif" font-size="13" lengthAdjust="spacing" textLength="112.4487" x="236.83" y="867.6089">(Sync PostgreSQL)</text></g><!--entity async_drv--><g class="entity" data-entity="async_drv" data-source-line="23" data-uid="ent0015" id="entity_async_drv"><rect fill="#F1F1F1" height="60.6211" rx="2.5" ry="2.5" style="stroke:#181818;stroke-width:0.5;" width="161.0435" x="425.48" y="819.73"/><rect fill="#F1F1F1" height="10" style="stroke:#181818;stroke-width:0.5;" width="15" x="566.5235" y="824.73"/><rect fill="#F1F1F1" height="2" style="stroke:#181818;stroke-width:0.5;" width="4" x="564.5235" y="826.73"/><rect fill="#F1F1F1" height="2" style="stroke:#181818;stroke-width:0.5;" width="4" x="564.5235" y="830.73"/><text fill="#000000" font-family="sans-serif" font-size="13" lengthAdjust="spacing" textLength="51.6128" x="440.48" y="852.2984">asyncpg</text><text fill="#000000" font-family="sans-serif" font-size="13" lengthAdjust="spacing" textLength="121.0435" x="440.48" y="867.6089">(Async PostgreSQL)</text></g><!--link models to session--><g class="link" data-entity-1="models" data-entity-2="session" data-source-line="29" data-uid="lnk17" id="link_models_session"><path d="M117,142.99 C117,178.65 117,232.66 117,232.66 C117,232.66 195.07,232.66 256.31,232.66" fill="none" id="models-to-session" style="stroke:#181818;stroke-width:1;"/><polygon fill="#181818" points="262.31,232.66,253.31,228.66,257.31,232.66,253.31,236.66,262.31,232.66" style="stroke:#181818;stroke-width:1;"/></g><!--link session to uow--><g class="link" data-entity-1="session" data-entity-2="uow" data-source-line="30" data-uid="lnk18" id="link_session_uow"><path d="M326,263.66 C326,283.97 326,304.48 326,324.74" fill="none" id="session-to-uow" style="stroke:#181818;stroke-width:1;"/><polygon fill="#181818" points="326,330.74,330,321.74,326,325.74,322,321.74,326,330.74" style="stroke:#181818;stroke-width:1;"/></g><!--link uow to dml--><g class="link" data-entity-1="uow" data-entity-2="dml" data-source-line="31" data-uid="lnk19" id="link_uow_dml"><path d="M385.78,361.66 C417.77,361.66 450.67,361.66 450.67,361.66 C450.67,361.66 450.67,415.05 450.67,452.87" fill="none" id="uow-to-dml" style="stroke:#181818;stroke-width:1;"/><polygon fill="#181818" points="450.67,458.87,454.67,449.87,450.67,453.87,446.67,449.87,450.67,458.87" style="stroke:#181818;stroke-width:1;"/></g><!--link session to dml--><g class="link" data-entity-1="session" data-entity-2="dml" data-source-line="32" data-uid="lnk20" id="link_session_dml"><path d="M387.59,232.66 C422.08,232.66 457.98,232.66 457.98,232.66 C457.98,232.66 457.98,384.59 457.98,452.76" fill="none" id="session-to-dml" style="stroke:#181818;stroke-width:1;"/><polygon fill="#181818" points="457.98,458.76,461.98,449.76,457.98,453.76,453.98,449.76,457.98,458.76" style="stroke:#181818;stroke-width:1;"/></g><!--link dml to engine--><g class="link" data-entity-1="dml" data-entity-2="engine" data-source-line="33" data-uid="lnk21" id="link_dml_engine"><path d="M514,520.24 C514,538.38 514,555.28 514,573.41" fill="none" id="dml-to-engine" style="stroke:#181818;stroke-width:1;"/><polygon fill="#181818" points="514,579.41,518,570.41,514,574.41,510,570.41,514,579.41" style="stroke:#181818;stroke-width:1;"/></g><!--link engine to pool--><g class="link" data-entity-1="engine" data-entity-2="pool" data-source-line="34" data-uid="lnk22" id="link_engine_pool"><path d="M514,640.68 C514,659.37 514,676.89 514,694.01" fill="none" id="engine-to-pool" style="stroke:#181818;stroke-width:1;"/><polygon fill="#181818" points="514,700.01,518,691.01,514,695.01,510,691.01,514,700.01" style="stroke:#181818;stroke-width:1;"/></g><!--link pool to sync_drv--><g class="link" data-entity-1="pool" data-entity-2="sync_drv" data-source-line="35" data-uid="lnk23" id="link_pool_sync_drv"><path d="M442.39,722.66 C389.26,722.66 326,722.66 326,722.66 C326,722.66 326,775.84 326,813.53" fill="none" id="pool-to-sync_drv" style="stroke:#181818;stroke-width:1;"/><polygon fill="#181818" points="326,819.53,330,810.53,326,814.53,322,810.53,326,819.53" style="stroke:#181818;stroke-width:1;"/></g><!--link pool to async_drv--><g class="link" data-entity-1="pool" data-entity-2="async_drv" data-source-line="36" data-uid="lnk24" id="link_pool_async_drv"><path d="M514,746.07 C514,766.65 514,790.97 514,813.57" fill="none" id="pool-to-async_drv" style="stroke:#181818;stroke-width:1;"/><polygon fill="#181818" points="514,819.57,518,810.57,514,814.57,510,810.57,514,819.57" style="stroke:#181818;stroke-width:1;"/></g><!--link sync_drv to pg--><g class="link" data-entity-1="sync_drv" data-entity-2="pg" data-source-line="37" data-uid="lnk25" id="link_sync_drv_pg"><path d="M375.24,880.77 C375.24,899.5 375.24,917.02 375.24,934.02" fill="none" id="sync_drv-to-pg" style="stroke:#181818;stroke-width:1;"/><polygon fill="#181818" points="375.24,940.02,379.24,931.02,375.24,935.02,371.24,931.02,375.24,940.02" style="stroke:#181818;stroke-width:1;"/></g><!--link async_drv to pg--><g class="link" data-entity-1="async_drv" data-entity-2="pg" data-source-line="38" data-uid="lnk26" id="link_async_drv_pg"><path d="M438.58,880.77 C438.58,899.5 438.58,917.02 438.58,934.02" fill="none" id="async_drv-to-pg" style="stroke:#181818;stroke-width:1;"/><polygon fill="#181818" points="438.58,940.02,442.58,931.02,438.58,935.02,434.58,931.02,438.58,940.02" style="stroke:#181818;stroke-width:1;"/></g><!--link meta to dml--><g class="link" data-entity-1="meta" data-entity-2="dml" data-source-line="39" data-uid="lnk27" id="link_meta_dml"><path d="M515,399.35 C515,418.4 515,435.14 515,453.01" fill="none" id="meta-to-dml" style="stroke:#181818;stroke-width:1;"/><polygon fill="#181818" points="515,459.01,519,450.01,515,454.01,511,450.01,515,459.01" style="stroke:#181818;stroke-width:1;"/></g><!--SRC=[RPB1Qjj048RlUeh1ETGvXD2cK9yAZkr2mAPftD93NSfOEvQ5LxlBxZf5AGNJSu-Xnpv3MoWqXRo3z4OThMJ7QRGWQNPc_jtHD-DMgJ9eCGFdSqbW9AOgSZklJ1Nvt11ewvTwBo1eWMlfNsZbf-aLmUEJlU0SurLYzLg9WPRQmi4Yh2Wo7C24e3DzDUxBU4bP3gDOkznvoZhmAG9UkwIN5nCOOquMkiNtukUZyhhuMtufRei_nGsKc_9RyQluNToMNmyxS42znTD5hpcYMh7EZ5QaFBmRKYovC9zUqYawcga96aC21XAT8_SUq46c1KdNffwISwbMCzLtkOgRNT2uscuJlL6f1xs0jzgkPkfCi3FrEV35GRdM7zjK5oIvIgtSCZLkfiPubH-Fc8M5iKQHgYI8BSaW_XpTvpNGbhR06F03HDo2arYq8ngfX5lT_6Ez2NTHCDiK0wqKnLMrSAwr3Dc6ZRPSHv9JkuUGAaUMZPbQ6u6UsCNOgJB20I9hrR_6kUJYU9hM6JTYGXw7wB5k76zQSGnF- -TdF3hNvQRuKTnK9CfDuD0JpmIsSp0kZxL9di0nDEPCTQVCX7_I-SGIWwrBhK1z4FQoxHIiWa4QU3xGuZrnKpZpm3cF9tJkqZk1QX9nIZsWS7JqV3TtpJVugedY9zWLnVrOjUSds4r3wq_mXAPLh_hiRMKxprsnMwEM9H7-xwXwiRln7m00]--></g></svg>