<svg xmlns="http://www.w3.org/2000/svg" xmlns:xlink="http://www.w3.org/1999/xlink" contentStyleType="text/css" data-diagram-type="DESCRIPTION" height="341px" preserveAspectRatio="none" style="width:646px;height:341px;background:#FFFFFF;" version="1.1" viewBox="0 0 646 341" width="646px" zoomAndPan="magnify"><defs/><g><!--cluster FastAPI Application--><g class="cluster" data-entity="FastAPI Application" data-source-line="7" data-uid="ent0002" id="cluster_FastAPI Application"><path d="M199.5,6 L330.519,6 A3.75,3.75 0 0 1 333.019,8.5 L340.019,27.3105 L604.5,27.3105 A2.5,2.5 0 0 1 607,29.8105 L607,98.81 A2.5,2.5 0 0 1 604.5,101.31 L199.5,101.31 A2.5,2.5 0 0 1 197,98.81 L197,8.5 A2.5,2.5 0 0 1 199.5,6" fill="#E8F4F8" style="stroke:#000000;stroke-width:1.5;"/><line style="stroke:#000000;stroke-width:1.5;" x1="197" x2="340.019" y1="27.3105" y2="27.3105"/><text fill="#000000" font-family="sans-serif" font-size="13" font-weight="bold" lengthAdjust="spacing" textLength="130.019" x="201" y="20.5684">FastAPI Application</text></g><!--cluster Connection Pool (QueuePool)--><g class="cluster" data-entity="Connection Pool .QueuePool." data-source-line="13" data-uid="ent0006" id="cluster_Connection Pool .QueuePool."><path d="M8.5,125.31 L203.8462,125.31 A3.75,3.75 0 0 1 206.3462,127.81 L213.3462,146.6205 L636.5,146.6205 A2.5,2.5 0 0 1 639,149.1205 L639,233.43 A2.5,2.5 0 0 1 636.5,235.93 L8.5,235.93 A2.5,2.5 0 0 1 6,233.43 L6,127.81 A2.5,2.5 0 0 1 8.5,125.31" fill="#FFF3CD" style="stroke:#000000;stroke-width:1.5;"/><line style="stroke:#000000;stroke-width:1.5;" x1="6" x2="213.3462" y1="146.6205" y2="146.6205"/><text fill="#000000" font-family="sans-serif" font-size="13" font-weight="bold" lengthAdjust="spacing" textLength="194.3462" x="10" y="139.8784">Connection Pool (QueuePool)</text></g><!--entity R1--><g class="entity" data-entity="R1" data-source-line="8" data-uid="ent0003" id="entity_R1"><rect fill="#F1F1F1" height="45.3105" rx="2.5" ry="2.5" style="stroke:#181818;stroke-width:0.5;" width="102.7783" x="212.61" y="40"/><rect fill="#F1F1F1" height="10" style="stroke:#181818;stroke-width:0.5;" width="15" x="295.3883" y="45"/><rect fill="#F1F1F1" height="2" style="stroke:#181818;stroke-width:0.5;" width="4" x="293.3883" y="47"/><rect fill="#F1F1F1" height="2" style="stroke:#181818;stroke-width:0.5;" width="4" x="293.3883" y="51"/><text fill="#000000" font-family="sans-serif" font-size="13" lengthAdjust="spacing" textLength="62.7783" x="227.61" y="72.5684">Request 1</text></g><!--entity R2--><g class="entity" data-entity="R2" data-source-line="9" data-uid="ent0004" id="entity_R2"><rect fill="#F1F1F1" height="45.3105" rx="2.5" ry="2.5" style="stroke:#181818;stroke-width:0.5;" width="102.7783" x="350.61" y="40"/><rect fill="#F1F1F1" height="10" style="stroke:#181818;stroke-width:0.5;" width="15" x="433.3883" y="45"/><rect fill="#F1F1F1" height="2" style="stroke:#181818;stroke-width:0.5;" width="4" x="431.3883" y="47"/><rect fill="#F1F1F1" height="2" style="stroke:#181818;stroke-width:0.5;" width="4" x="431.3883" y="51"/><text fill="#000000" font-family="sans-serif" font-size="13" lengthAdjust="spacing" textLength="62.7783" x="365.61" y="72.5684">Request 2</text></g><!--entity R3--><g class="entity" data-entity="R3" data-source-line="10" data-uid="ent0005" id="entity_R3"><rect fill="#F1F1F1" height="45.3105" rx="2.5" ry="2.5" style="stroke:#181818;stroke-width:0.5;" width="102.7783" x="488.61" y="40"/><rect fill="#F1F1F1" height="10" style="stroke:#181818;stroke-width:0.5;" width="15" x="571.3883" y="45"/><rect fill="#F1F1F1" height="2" style="stroke:#181818;stroke-width:0.5;" width="4" x="569.3883" y="47"/><rect fill="#F1F1F1" height="2" style="stroke:#181818;stroke-width:0.5;" width="4" x="569.3883" y="51"/><text fill="#000000" font-family="sans-serif" font-size="13" lengthAdjust="spacing" textLength="62.7783" x="503.61" y="72.5684">Request 3</text></g><!--entity C1--><g class="entity" data-entity="C1" data-source-line="14" data-uid="ent0007" id="entity_C1"><rect fill="#FFCCCC" height="60.6211" rx="2.5" ry="2.5" style="stroke:#181818;stroke-width:0.5;" width="124.0239" x="180.99" y="159.31"/><rect fill="#FFCCCC" height="10" style="stroke:#181818;stroke-width:0.5;" width="15" x="285.0139" y="164.31"/><rect fill="#FFCCCC" height="2" style="stroke:#181818;stroke-width:0.5;" width="4" x="283.0139" y="166.31"/><rect fill="#FFCCCC" height="2" style="stroke:#181818;stroke-width:0.5;" width="4" x="283.0139" y="170.31"/><text fill="#000000" font-family="sans-serif" font-size="13" lengthAdjust="spacing" textLength="84.0239" x="195.99" y="191.8784">Connection 1</text><text fill="#000000" font-family="sans-serif" font-size="13" lengthAdjust="spacing" textLength="58.5635" x="195.99" y="207.1889">(&#1079;&#1072;&#1081;&#1085;&#1103;&#1090;&#1072;)</text></g><!--entity C2--><g class="entity" data-entity="C2" data-source-line="15" data-uid="ent0008" id="entity_C2"><rect fill="#CCFFCC" height="60.6211" rx="2.5" ry="2.5" style="stroke:#181818;stroke-width:0.5;" width="124.0239" x="339.99" y="159.31"/><rect fill="#CCFFCC" height="10" style="stroke:#181818;stroke-width:0.5;" width="15" x="444.0139" y="164.31"/><rect fill="#CCFFCC" height="2" style="stroke:#181818;stroke-width:0.5;" width="4" x="442.0139" y="166.31"/><rect fill="#CCFFCC" height="2" style="stroke:#181818;stroke-width:0.5;" width="4" x="442.0139" y="170.31"/><text fill="#000000" font-family="sans-serif" font-size="13" lengthAdjust="spacing" textLength="84.0239" x="354.99" y="191.8784">Connection 2</text><text fill="#000000" font-family="sans-serif" font-size="13" lengthAdjust="spacing" textLength="48.4961" x="354.99" y="207.1889">(&#1074;&#1110;&#1083;&#1100;&#1085;&#1072;)</text></g><!--entity C3--><g class="entity" data-entity="C3" data-source-line="16" data-uid="ent0009" id="entity_C3"><rect fill="#CCFFCC" height="60.6211" rx="2.5" ry="2.5" style="stroke:#181818;stroke-width:0.5;" width="124.0239" x="498.99" y="159.31"/><rect fill="#CCFFCC" height="10" style="stroke:#181818;stroke-width:0.5;" width="15" x="603.0139" y="164.31"/><rect fill="#CCFFCC" height="2" style="stroke:#181818;stroke-width:0.5;" width="4" x="601.0139" y="166.31"/><rect fill="#CCFFCC" height="2" style="stroke:#181818;stroke-width:0.5;" width="4" x="601.0139" y="170.31"/><text fill="#000000" font-family="sans-serif" font-size="13" lengthAdjust="spacing" textLength="84.0239" x="513.99" y="191.8784">Connection 3</text><text fill="#000000" font-family="sans-serif" font-size="13" lengthAdjust="spacing" textLength="48.4961" x="513.99" y="207.1889">(&#1074;&#1110;&#1083;&#1100;&#1085;&#1072;)</text></g><!--entity C4--><g class="entity" data-entity="C4" data-source-line="17" data-uid="ent0010" id="entity_C4"><rect fill="#FFE0B2" height="60.6211" rx="2.5" ry="2.5" style="stroke:#181818;stroke-width:0.5;" width="124.0239" x="21.99" y="159.31"/><rect fill="#FFE0B2" height="10" style="stroke:#181818;stroke-width:0.5;" width="15" x="126.0139" y="164.31"/><rect fill="#FFE0B2" height="2" style="stroke:#181818;stroke-width:0.5;" width="4" x="124.0139" y="166.31"/><rect fill="#FFE0B2" height="2" style="stroke:#181818;stroke-width:0.5;" width="4" x="124.0139" y="170.31"/><text fill="#000000" font-family="sans-serif" font-size="13" lengthAdjust="spacing" textLength="84.0239" x="36.99" y="191.8784">Connection 4</text><text fill="#000000" font-family="sans-serif" font-size="13" lengthAdjust="spacing" textLength="62.2705" x="36.99" y="207.1889">(overflow)</text></g><!--entity PG--><g class="entity" data-entity="PG" data-source-line="20" data-uid="ent0011" id="entity_PG"><path d="M254.84,289.93 C254.84,279.93 322.0038,279.93 322.0038,279.93 C322.0038,279.93 389.1676,279.93 389.1676,289.93 L389.1676,314.2405 C389.1676,324.2405 322.0038,324.2405 322.0038,324.2405 C322.0038,324.2405 254.84,324.2405 254.84,314.2405 L254.84,289.93" fill="#F8D7DA" style="stroke:#181818;stroke-width:0.5;"/><path d="M254.84,289.93 C254.84,299.93 322.0038,299.93 322.0038,299.93 C322.0038,299.93 389.1676,299.93 389.1676,289.93" fill="none" style="stroke:#181818;stroke-width:0.5;"/><text fill="#000000" font-family="sans-serif" font-size="13" lengthAdjust="spacing" textLength="114.3276" x="264.84" y="316.4984">PostgreSQL Server</text></g><!--link R1 to C1--><g class="link" data-entity-1="R1" data-entity-2="C1" data-source-line="22" data-uid="lnk12" id="link_R1_C1"><path d="M258.81,85.65 C258.81,106.23 258.81,130.55 258.81,153.15" fill="none" id="R1-to-C1" style="stroke:#555555;stroke-width:1;"/><polygon fill="#555555" points="258.81,159.15,262.81,150.15,258.81,154.15,254.81,150.15,258.81,159.15" style="stroke:#555555;stroke-width:1;"/></g><!--link R2 to C2--><g class="link" data-entity-1="R2" data-entity-2="C2" data-source-line="23" data-uid="lnk13" id="link_R2_C2"><path d="M402,85.65 C402,106.23 402,130.55 402,153.15" fill="none" id="R2-to-C2" style="stroke:#555555;stroke-width:1;"/><polygon fill="#555555" points="402,159.15,406,150.15,402,154.15,398,150.15,402,159.15" style="stroke:#555555;stroke-width:1;"/></g><!--link R3 to C3--><g class="link" data-entity-1="R3" data-entity-2="C3" data-source-line="24" data-uid="lnk14" id="link_R3_C3"><path d="M545.19,85.65 C545.19,106.23 545.19,130.55 545.19,153.15" fill="none" id="R3-to-C3" style="stroke:#555555;stroke-width:1;"/><polygon fill="#555555" points="545.19,159.15,549.19,150.15,545.19,154.15,541.19,150.15,545.19,159.15" style="stroke:#555555;stroke-width:1;"/></g><!--link C1 to PG--><g class="link" data-entity-1="C1" data-entity-2="PG" data-source-line="26" data-uid="lnk15" id="link_C1_PG"><path d="M279.92,220.35 C279.92,239.08 279.92,256.6 279.92,273.6" fill="none" id="C1-to-PG" style="stroke:#555555;stroke-width:1;"/><polygon fill="#555555" points="279.92,279.6,283.92,270.6,279.92,274.6,275.92,270.6,279.92,279.6" style="stroke:#555555;stroke-width:1;"/></g><!--link C2 to PG--><g class="link" data-entity-1="C2" data-entity-2="PG" data-source-line="27" data-uid="lnk16" id="link_C2_PG"><path d="M364.58,220.35 C364.58,239.08 364.58,256.6 364.58,273.6" fill="none" id="C2-to-PG" style="stroke:#555555;stroke-width:1;"/><polygon fill="#555555" points="364.58,279.6,368.58,270.6,364.58,274.6,360.58,270.6,364.58,279.6" style="stroke:#555555;stroke-width:1;"/></g><!--link C3 to PG--><g class="link" data-entity-1="C3" data-entity-2="PG" data-source-line="28" data-uid="lnk17" id="link_C3_PG"><path d="M561,220.39 C561,253.74 561,302.24 561,302.24 C561,302.24 466.2,302.24 395.53,302.24" fill="none" id="C3-to-PG" style="stroke:#555555;stroke-width:1;"/><polygon fill="#555555" points="389.53,302.24,398.53,306.24,394.53,302.24,398.53,298.24,389.53,302.24" style="stroke:#555555;stroke-width:1;"/></g><!--link C4 to PG--><g class="link" data-entity-1="C4" data-entity-2="PG" data-source-line="29" data-uid="lnk18" id="link_C4_PG"><path d="M84,220.39 C84,253.74 84,302.24 84,302.24 C84,302.24 178.07,302.24 248.44,302.24" fill="none" id="C4-to-PG" style="stroke:#555555;stroke-width:1;stroke-dasharray:7,7;"/><polygon fill="#555555" points="254.44,302.24,245.44,298.24,249.44,302.24,245.44,306.24,254.44,302.24" style="stroke:#555555;stroke-width:1;"/><text fill="#000000" font-family="sans-serif" font-size="13" lengthAdjust="spacing" textLength="108.2275" x="19.29" y="283.8084">&#1089;&#1090;&#1074;&#1086;&#1088;&#1102;&#1108;&#1090;&#1100;&#1089;&#1103; &#1087;&#1088;&#1080;</text><text fill="#000000" font-family="sans-serif" font-size="13" lengthAdjust="spacing" textLength="103.3081" x="21.7497" y="299.1189">&#1087;&#1077;&#1088;&#1077;&#1074;&#1072;&#1085;&#1090;&#1072;&#1078;&#1077;&#1085;&#1085;&#1110;</text></g><!--SRC=[ZP11I-D068Rlyoi-seiU59EfMFOWb41bOGzfUbGFq-HB3SQPE9biSPS5zInwMVexYk3gidJz2pF_o9b4Ia1Q_4xlpFizp3jlUPxnWabs0QMwoX6Ad6MSbAlRFEEehWe48TMPQ1a9fgpArL1mDSv-87YqPGwa5BD0v492Tx-UbZbXyVbKYeedxnjfFOGKrc1JXCwGbMeGVeL1KUHPp5GcU0Uws4zxQHz-4h0JYuj2SEGAZYEyhB1Ku9q2Ao7orlb-u_lhVDhubFngHGa4vnYx110AaSFMgC8AdTpkrCbfd7oCrAAy4xwbd_L2_zLBys1kzMAxVYVm71xRsG3x3duqS_tFtEbbZTQi3zquTlG6bgvXwIVOdcN5TvHfBcRlSNikBkvDV5TFmXIRiDBs4ufIJIMEHzzWZD8Y7RST7jdjVdAGC48Y3tPs3kr_IUGtoYSHRHGb96Ziy8W4_ahHbUh1hiocPshN7U4Bc1jRuQF-RwxDlVbjRisTlNa0_MgkzSi9rw_woQedkxAmVTkszHzxMbez9sy0]--></g></svg>