<?xml version="1.0" encoding="UTF-8" standalone="no"?>
<!DOCTYPE svg PUBLIC "-//W3C//DTD SVG 1.1//EN"
 "http://www.w3.org/Graphics/SVG/1.1/DTD/svg11.dtd">
<!-- Generated by graphviz version 2.30.1 (20180828.1746)
 -->
<!-- Title: Aws::Auth::DefaultAWSCredentialsProviderChain Pages: 1 -->
<svg aria-hidden="true" width="192pt" height="170pt"
 viewBox="0.00 0.00 192.00 170.00" xmlns="http://www.w3.org/2000/svg" xmlns:xlink="http://www.w3.org/1999/xlink">
<g id="graph0" class="graph" transform="scale(1 1) rotate(0) translate(4 166)">
<title>Aws::Auth::DefaultAWSCredentialsProviderChain</title>
<!-- Node1 -->
<g id="Node000001" class="node"><title>Node1</title>
<g id="a_Node000001"><a xlink:title=" ">
<polygon fill="#999999" stroke="#666666" points="184,-30 0,-30 0,-1.77636e-15 184,-1.77636e-15 184,-30"/>
<text text-anchor="start" x="8" y="-18" font-family="Helvetica,sans-Serif" font-size="10.00">Aws::Auth::DefaultAWSCredentials</text>
<text text-anchor="middle" x="92" y="-7" font-family="Helvetica,sans-Serif" font-size="10.00">ProviderChain</text>
</a>
</g>
</g>
<!-- Node2 -->
<g id="Node000002" class="node"><title>Node2</title>
<g id="a_Node000002"><a xlink:href="class_aws_1_1_auth_1_1_a_w_s_credentials_provider_chain.html" target="_top" xlink:title=" ">
<polygon fill="white" stroke="#666666" points="166,-96 18,-96 18,-66 166,-66 166,-96"/>
<text text-anchor="start" x="26" y="-84" font-family="Helvetica,sans-Serif" font-size="10.00">Aws::Auth::AWSCredentials</text>
<text text-anchor="middle" x="92" y="-73" font-family="Helvetica,sans-Serif" font-size="10.00">ProviderChain</text>
</a>
</g>
</g>
<!-- Node2&#45;&gt;Node1 -->
<g id="edge1_Node000001_Node000002" class="edge"><title>Node2&#45;&gt;Node1</title>
<g id="a_edge1_Node000001_Node000002"><a xlink:title=" ">
<path fill="none" stroke="#63b8ff" d="M92,-55.5397C92,-46.9604 92,-37.6145 92,-30.164"/>
<polygon fill="#63b8ff" stroke="#63b8ff" points="88.5001,-55.7963 92,-65.7963 95.5001,-55.7964 88.5001,-55.7963"/>
</a>
</g>
</g>
<!-- Node3 -->
<g id="Node000003" class="node"><title>Node3</title>
<g id="a_Node000003"><a xlink:href="class_aws_1_1_auth_1_1_a_w_s_credentials_provider.html" target="_top" xlink:title=" ">
<polygon fill="white" stroke="#666666" points="166,-162 18,-162 18,-132 166,-132 166,-162"/>
<text text-anchor="start" x="26" y="-150" font-family="Helvetica,sans-Serif" font-size="10.00">Aws::Auth::AWSCredentials</text>
<text text-anchor="middle" x="92" y="-139" font-family="Helvetica,sans-Serif" font-size="10.00">Provider</text>
</a>
</g>
</g>
<!-- Node3&#45;&gt;Node2 -->
<g id="edge2_Node000002_Node000003" class="edge"><title>Node3&#45;&gt;Node2</title>
<g id="a_edge2_Node000002_Node000003"><a xlink:title=" ">
<path fill="none" stroke="#63b8ff" d="M92,-121.54C92,-112.96 92,-103.615 92,-96.164"/>
<polygon fill="#63b8ff" stroke="#63b8ff" points="88.5001,-121.796 92,-131.796 95.5001,-121.796 88.5001,-121.796"/>
</a>
</g>
</g>
</g>
</svg>
